<?xml version="1.0" encoding="utf-8"?>
<!-- Generator: Adobe Illustrator 23.0.1, SVG Export Plug-In . SVG Version: 6.00 Build 0)  -->
<svg version="1.1" id="Layer_1" focusable="false" xmlns="http://www.w3.org/2000/svg" xmlns:xlink="http://www.w3.org/1999/xlink"
	 x="0px" y="0px" viewBox="0 0 658.5 658.5" style="enable-background:new 0 0 658.5 658.5;" xml:space="preserve">
<style type="text/css">
	.st0{fill:#2686B9;}
	.st1{fill:#192431;}
</style>
<circle class="st0" cx="329.3" cy="329.3" r="329.3"/>
<rect x="149.3" y="135.3" class="st1" width="374" height="391"/>
<path class="st0" d="M521.3,105.3H137.2c-17.6,0-31.9,14.5-31.9,32.3V521c0,17.8,14.3,32.3,31.9,32.3h384.1c17.6,0,32-14.5,32-32.3
	V137.6C553.3,119.8,538.9,105.3,521.3,105.3z M240.7,489.3h-66.4V275.5h66.5v213.8H240.7z M207.5,246.3c-21.3,0-38.5-17.3-38.5-38.5
	s17.2-38.5,38.5-38.5c21.2,0,38.5,17.3,38.5,38.5C246,229.1,228.8,246.3,207.5,246.3z M489.6,489.3h-66.4v-104
	c0-24.8-0.5-56.7-34.5-56.7c-34.6,0-39.9,27-39.9,54.9v105.8h-66.4V275.5h63.7v29.2h0.9c8.9-16.8,30.6-34.5,62.9-34.5
	c67.2,0,79.7,44.3,79.7,101.9V489.3z"/>
</svg>
